<?xml version="1.0" encoding="UTF-8" standalone="no"?>
<svg
   xmlns:dc="http://purl.org/dc/elements/1.1/"
   xmlns:cc="http://creativecommons.org/ns#"
   xmlns:rdf="http://www.w3.org/1999/02/22-rdf-syntax-ns#"
   xmlns:svg="http://www.w3.org/2000/svg"
   xmlns="http://www.w3.org/2000/svg"
   viewBox="0 0 1234.6667 1280"
   height="1280"
   width="1234.6667"
   xml:space="preserve"
   id="svg2"
   version="1.1"><metadata
     id="metadata8"><rdf:RDF><cc:Work
         rdf:about=""><dc:format>image/svg+xml</dc:format><dc:type
           rdf:resource="http://purl.org/dc/dcmitype/StillImage" /></cc:Work></rdf:RDF></metadata><defs
     id="defs6"><clipPath
       id="clipPath20"
       clipPathUnits="userSpaceOnUse"><path
         id="path18"
         d="M 0,960 H 926 V 0 H 0 Z" /></clipPath></defs><g
     transform="matrix(1.3333333,0,0,-1.3333333,0,1280)"
     id="g10"><path
       id="path12"
       style="fill:#ffffff;fill-opacity:1;fill-rule:nonzero;stroke:none"
       d="M 0,0 H 926 V 960 H 0 Z" /><g
       id="g14"><g
         clip-path="url(#clipPath20)"
         id="g16"><g
           transform="translate(671.9985,139.958)"
           id="g22"><path
             id="path24"
             style="fill:#414141;fill-opacity:1;fill-rule:nonzero;stroke:none"
             d="m 0,0 h -16.341 v 26.29 c 0,2.842 0.265,5.951 0.443,6.483 l -0.443,0.178 c -0.09,-0.444 -0.889,-2.93 -1.511,-4.439 L -29.397,-0.532 h -8.35 l -11.725,29.044 c -0.62,1.509 -1.42,3.995 -1.509,4.439 l -0.444,-0.178 c 0.178,-0.532 0.444,-3.819 0.444,-6.483 V 0 h -16.165 v 58.62 h 17.586 l 11.191,-24.159 c 2.31,-4.974 4.619,-11.014 4.885,-12.256 h 0.355 c 0.178,1.242 2.577,7.371 4.796,12.346 L -17.496,58.62 H 0 Z m -94.594,22.648 -3.907,14.123 c -0.534,1.955 -1.332,5.062 -1.6,7.104 h -0.355 c -0.267,-2.042 -1.154,-5.149 -1.687,-7.193 l -3.909,-14.034 z m 3.287,-11.901 h -18.03 L -112.357,0 h -16.965 l 19.718,58.62 h 18.475 L -71.59,0 h -16.787 z m -70.258,18.297 c 6.838,0 11.103,2.931 11.103,8.171 0,5.684 -3.82,8.704 -10.037,8.704 h -4.264 V 29.044 Z M -130.212,0.09 c 0,0 -2.399,-0.8 -7.906,-0.8 -19.184,0 -14.299,18.563 -25.668,18.563 h -0.977 V 0 h -16.608 v 58.62 h 21.937 c 16.698,0 25.135,-6.573 25.135,-21.227 0,-8.171 -3.552,-13.59 -10.569,-16.61 5.24,-1.775 5.329,-8.172 11.902,-8.172 0.977,0 1.864,0.18 1.864,0.18 z M -189.813,0 h -11.636 c -0.089,0.533 -0.444,2.221 -0.621,5.151 -3.286,-3.641 -8.261,-5.861 -15.188,-5.861 -16.165,0 -26.912,11.546 -26.912,30.02 0,18.474 11.99,30.02 28.599,30.02 18.653,0 25.49,-12.612 25.49,-22.737 l -15.275,-2.309 c 0,5.329 -2.665,10.746 -9.949,10.746 -6.839,0 -12.079,-6.039 -12.079,-15.72 0,-9.948 5.152,-16.609 13.146,-16.609 5.862,0 9.414,1.954 10.214,6.485 h -12.258 v 9.058 h 26.469 z m -76.21,29.399 c 0,10.124 -5.417,15.631 -12.612,15.631 -7.194,0 -12.611,-5.507 -12.611,-15.631 0,-10.213 5.417,-15.72 12.611,-15.72 7.195,0 12.612,5.507 12.612,15.72 m 16.787,0 c 0,-18.475 -11.991,-30.021 -29.399,-30.021 -17.408,0 -29.399,11.546 -29.399,30.021 0,18.385 11.991,29.931 29.399,29.931 17.408,0 29.399,-11.546 29.399,-29.931 m -93.263,-0.355 c 6.839,0 11.103,2.931 11.103,8.171 0,5.684 -3.819,8.704 -10.036,8.704 h -4.264 V 29.044 Z M -311.146,0.09 c 0,0 -2.397,-0.8 -7.904,-0.8 -19.185,0 -14.3,18.563 -25.669,18.563 h -0.977 V 0 h -16.609 v 58.62 h 21.938 c 16.698,0 25.137,-6.573 25.137,-21.227 0,-8.171 -3.554,-13.59 -10.571,-16.61 5.241,-1.775 5.329,-8.172 11.903,-8.172 0.976,0 1.865,0.18 1.865,0.18 z m -74.255,36.948 c 0,5.15 -3.464,8.881 -11.014,8.881 h -4.974 V 28.154 h 5.597 c 6.661,0 10.391,2.932 10.391,8.884 m 16.786,0 c 0,-14.923 -11.101,-21.584 -23.713,-21.584 h -9.061 V 0 h -16.608 v 58.62 h 23.448 c 15.898,0 25.934,-6.751 25.934,-21.582 m 441.63,109.51 v -35.083 c 0,-14.921 -10.303,-24.247 -25.49,-24.247 -15.455,0 -25.757,9.326 -25.757,24.247 l 0.088,35.083 h 16.608 v -35.083 c 0,-6.307 3.732,-9.948 9.061,-9.948 5.24,0 8.882,3.641 8.882,9.948 v 35.083 z M 18.034,101.429 V 87.928 h -40.678 v 58.62 h 16.608 v -45.119 z m -68.126,9.146 -3.908,14.123 c -0.534,1.954 -1.332,5.063 -1.599,7.105 h -0.355 c -0.267,-2.042 -1.155,-5.151 -1.688,-7.194 l -3.908,-14.034 z m 3.286,-11.9 h -18.03 L -67.855,87.928 H -84.82 l 19.717,58.62 h 18.475 l 19.54,-58.62 h -16.787 z m -59.601,34.372 v -10.658 h 20.605 v -12.967 h -20.605 V 87.928 h -16.609 v 58.62 h 40.234 v -13.501 z m -70.615,-16.075 c 6.839,0 11.103,2.929 11.103,8.171 0,5.684 -3.819,8.704 -10.036,8.704 h -4.264 v -16.875 z m 31.354,-28.954 c 0,0 -2.4,-0.8 -7.906,-0.8 -19.184,0 -14.3,18.562 -25.668,18.562 h -0.977 V 87.928 h -16.609 v 58.62 h 21.938 c 16.698,0 25.135,-6.573 25.135,-21.228 0,-8.171 -3.553,-13.59 -10.569,-16.609 5.24,-1.775 5.329,-8.172 11.901,-8.172 0.978,0 1.865,0.179 1.865,0.179 z m -78.608,22.557 -3.908,14.123 c -0.532,1.954 -1.332,5.063 -1.599,7.105 h -0.355 c -0.265,-2.042 -1.154,-5.151 -1.687,-7.194 l -3.908,-14.034 z m 3.287,-11.9 h -18.031 l -3.019,-10.747 h -16.963 l 19.715,58.62 h 18.475 l 19.54,-58.62 h -16.787 z m -50.186,10.39 V 87.928 h -16.609 v 21.05 l -19.45,37.57 h 17.941 l 7.194,-16.61 c 0.8,-1.865 2.22,-5.417 2.664,-7.194 h 0.355 c 0.445,1.777 1.777,5.329 2.576,7.194 l 7.106,16.61 h 17.586 z m -35.798,-21.137 h -11.635 c -0.088,0.533 -0.443,2.219 -0.622,5.151 -3.286,-3.641 -8.26,-5.861 -15.187,-5.861 -16.165,0 -26.912,11.546 -26.912,30.019 0,18.475 11.99,30.021 28.6,30.021 18.65,0 25.49,-12.612 25.49,-22.737 l -15.277,-2.31 c 0,5.329 -2.664,10.747 -9.948,10.747 -6.839,0 -12.078,-6.04 -12.078,-15.721 0,-9.947 5.151,-16.608 13.145,-16.608 5.862,0 9.414,1.954 10.214,6.483 h -12.258 v 9.06 h 26.468 z m -77.808,22.647 -3.908,14.123 c -0.533,1.954 -1.332,5.063 -1.599,7.105 h -0.356 c -0.265,-2.042 -1.154,-5.151 -1.687,-7.194 l -3.907,-14.034 z m 3.286,-11.9 h -18.03 l -3.019,-10.747 h -16.964 l 19.716,58.62 h 18.475 l 19.54,-58.62 h -16.787 z m -42.371,-10.747 h -16.342 v 26.29 c 0,2.842 0.265,5.951 0.444,6.483 l -0.444,0.178 c -0.09,-0.444 -0.888,-2.931 -1.51,-4.441 l -11.546,-29.042 h -8.349 l -11.724,29.042 c -0.622,1.51 -1.422,3.997 -1.51,4.441 l -0.445,-0.178 c 0.178,-0.532 0.445,-3.819 0.445,-6.483 v -26.29 h -16.165 v 58.62 h 17.585 l 11.192,-24.159 c 2.309,-4.974 4.619,-11.014 4.884,-12.256 h 0.355 c 0.179,1.242 2.577,7.371 4.797,12.346 l 10.836,24.069 h 17.497 z" /></g><g
           transform="translate(558.3477,526.6875)"
           id="g26"><path
             id="path28"
             style="fill:#414141;fill-opacity:1;fill-rule:nonzero;stroke:none"
             d="m 0,0 c 0,-17.772 14.458,-32.23 32.23,-32.23 17.772,0 32.23,14.458 32.23,32.23 0,27.728 -20.848,77.125 -32.229,102.025 C 20.851,77.12 0,27.709 0,0 m -70.178,33.247 -11.395,11.395 33.899,33.9 38.689,-38.69 c 11.449,39.236 32.782,82.163 34.008,84.614 l 7.207,14.414 7.207,-14.414 C 41.116,121.107 80.575,41.71 80.575,0 c 0,-23.912 -17.453,-43.812 -40.287,-47.661 v -55.863 c -5.357,1.131 -10.73,2.19 -16.116,3.184 v 52.679 C 1.338,-43.812 -16.115,-23.912 -16.115,0 c 0,6.453 0.946,13.808 2.549,21.644 l -34.108,34.107 z m -152.747,101.045 c -6.676,0 -12.087,-5.411 -12.087,-12.086 V 69.832 h 24.173 v 52.374 c 0,6.675 -5.411,12.086 -12.086,12.086 m -32.23,-243.456 v 255.578 l 32.23,96.69 32.23,-96.69 V 44.316 28.202 l 16.115,16.114 v 104.713 l -48.345,145.035 -48.346,-145.035 v -262.491 c 5.352,1.502 10.724,2.936 16.116,4.298 m 146.378,60.819 h -16.115 V -64.46 h 16.115 z m -21.487,0 h -16.115 V -64.46 h 16.115 z m 21.487,21.487 h -16.115 v -16.115 h 16.115 z m -21.487,0 h -16.115 v -16.115 h 16.115 z m -83.261,5.371 h -14.081 L -127.578,78.542 -27.55,-21.487 h -14.081 v -70.14 c -5.367,0.436 -10.739,0.807 -16.115,1.112 v 76.434 l -69.832,69.832 -69.832,-69.832 v -83.306 c -5.383,-0.842 -10.756,-1.743 -16.115,-2.721 z" /></g><g
           transform="translate(180.9863,356.1475)"
           id="g30"><path
             id="path32"
             style="fill:#eb1e23;fill-opacity:1;fill-rule:nonzero;stroke:none"
             d="m 0,0 c 43.177,21.877 89.422,37.991 136.898,48.817 47.503,10.785 96.319,16.153 145.116,16.174 48.796,0.001 97.615,-5.369 145.12,-16.152 C 474.612,38.018 520.858,21.896 564.027,0 518.269,15.696 471.797,28.184 424.631,36.417 377.493,44.712 329.761,48.851 282.014,48.881 234.266,48.872 186.531,44.732 139.392,36.438 92.223,28.21 45.75,15.716 0,0" /></g><g
           transform="translate(180.9863,356.1475)"
           id="g34"><path
             id="path36"
             style="fill:#ec1c24;fill-opacity:1;fill-rule:nonzero;stroke:none"
             d="m 0,0 c 43.177,21.877 89.422,37.991 136.898,48.817 47.503,10.785 96.319,16.153 145.116,16.174 48.796,0.001 97.615,-5.369 145.12,-16.152 C 474.612,38.018 520.858,21.896 564.027,0 518.269,15.696 471.797,28.184 424.631,36.417 377.493,44.712 329.761,48.851 282.014,48.881 234.266,48.872 186.531,44.732 139.392,36.438 92.223,28.21 45.75,15.716 0,0" /></g><g
           transform="translate(140.6987,315.8135)"
           id="g38"><path
             id="path40"
             style="fill:#00a550;fill-opacity:1;fill-rule:nonzero;stroke:none"
             d="M 0,0 C 49.524,24.583 102.406,42.684 156.633,54.906 210.896,67.054 266.609,73.101 322.301,73.125 377.994,73.123 433.709,67.074 487.974,54.928 542.205,42.714 595.086,24.601 644.603,0 592.487,18.361 539.406,32.944 485.471,42.507 431.573,52.164 376.945,56.981 322.301,57.015 267.657,57.004 213.027,52.185 159.127,42.527 105.188,32.974 52.107,18.379 0,0" /></g><g
           transform="translate(140.6987,315.8135)"
           id="g42"><path
             id="path44"
             style="fill:#00a551;fill-opacity:1;fill-rule:nonzero;stroke:none"
             d="M 0,0 C 49.524,24.583 102.406,42.684 156.633,54.906 210.896,67.054 266.609,73.101 322.301,73.125 377.994,73.123 433.709,67.074 487.974,54.928 542.205,42.714 595.086,24.601 644.603,0 592.487,18.361 539.406,32.944 485.471,42.507 431.573,52.164 376.945,56.981 322.301,57.015 267.657,57.004 213.027,52.185 159.127,42.527 105.188,32.974 52.107,18.379 0,0" /></g></g></g></g></svg>